<svg viewBox="0 0 84 26" xmlns="http://www.w3.org/2000/svg"><g clip-rule="evenodd" fill="#555" fill-rule="evenodd"><path d="M16.5 7.1C17.9 7.1 19 6 19 4.6S17.9 2 16.5 2 14 3.1 14 4.5c-.1 1.5 1.1 2.6 2.5 2.6z"/><path d="M19.1 8.8H7.4V8c0-1.5 1.5-1.5 2.3-1.5.9 0 1.3.1 1.3.1V2.4s-.8-.1-1.9-.1c-2.4 0-7 .7-7 5.8v.6H0v3.8h2.1v8.1h-2v3.8h9.6v-3.8H7.4v-8.1h6.4v8.1h-2v3.8h9.3v-3.8h-2zm19.9 0h-8.4v3.8H32l-1.8 5.7c-.3.9-.4 2.1-.4 2.1h-.1s-.1-1.1-.4-2.1l-1.8-5.7h1.4V8.8h-8.4v3.8h1.8l4.4 11.9h6.2l4.4-11.9H39zm5.5 5.9c.3-1.2 1-2.3 2.5-2.3 1.2 0 2 1.1 2 2.3zm10 1.3c0-4.3-2.6-7.6-7.3-7.6-5.1 0-8.2 3.6-8.2 8.2 0 4.2 3 8.2 8.6 8.2 4.2 0 6.8-2.2 6.8-2.2L52.5 19s-2.1 1.5-4.4 1.5c-1.7 0-3.3-.9-3.7-2.9h10c-.1 0 .1-1.1.1-1.6zm22.4-3.6c-.1 0 0-.3 0-.8v-.8c0-1.4-.8-2-2.2-2h-5v3.8h1.5c.4 0 .7.2.7.7v7.4h-2.1v3.8h9.6v-3.8h-2.1v-2.3c0-2.9 1.4-4.7 4.3-4.7.6 0 1.1.1 1.1.1V8.6s-.3-.1-.6-.1c-2.6 0-4.6 1.8-5.2 3.9m-14 0c-.1 0 0-.3 0-.8v-.8c0-1.4-.8-2-2.2-2h-5v3.8h1.5c.4 0 .7.2.7.7v7.4h-2.1v3.8h9.6v-3.8h-2.1v-2.3c0-2.9 1.4-4.7 4.3-4.7.6 0 1.1.1 1.1.1V8.6s-.3-.1-.6-.1c-2.6 0-4.6 1.8-5.2 3.9"/></g></svg>